<?xml version="1.0" standalone="no"?>
<!DOCTYPE svg PUBLIC "-//W3C//DTD SVG 20010904//EN"
 "http://www.w3.org/TR/2001/REC-SVG-20010904/DTD/svg10.dtd">
<svg version="1.0" xmlns="http://www.w3.org/2000/svg"
 width="700.000000pt" height="700.000000pt" viewBox="0 0 700.000000 700.000000"
 preserveAspectRatio="xMidYMid meet">
<metadata>
Created by potrace 1.14, written by Peter Selinger 2001-2017
</metadata>
<g transform="translate(0.000000,700.000000) scale(0.100000,-0.100000)"
fill="#000000" stroke="none">
<path d="M2195 5989 c-307 -40 -599 -224 -772 -487 -71 -108 -114 -206 -151
-341 -25 -95 -26 -101 -26 -464 l-1 -369 91 -23 c257 -65 484 -255 595 -500
55 -122 70 -203 76 -411 l6 -191 47 9 c59 11 2889 6 2911 -5 14 -7 17 12 22
175 7 212 25 304 86 434 48 102 85 156 164 240 112 121 275 215 433 252 l79
19 3 284 c2 157 -2 332 -8 391 -52 516 -446 921 -960 988 -95 12 -2498 11
-2595 -1z"/>
<path d="M5764 4221 c-64 -10 -174 -46 -228 -73 -140 -70 -280 -210 -350 -350
-73 -147 -86 -214 -86 -455 l0 -203 35 -45 c54 -71 65 -125 65 -310 0 -185
-11 -239 -65 -310 l-35 -45 0 -630 c0 -711 -5 -667 78 -742 57 -52 109 -61
337 -56 206 3 225 8 288 67 64 58 61 40 68 571 l5 485 27 100 c57 214 185 409
352 540 122 95 243 218 284 288 47 80 87 197 102 297 55 380 -206 763 -584
855 -82 20 -221 27 -293 16z"/>
<path d="M940 4200 c-344 -89 -580 -394 -581 -750 -1 -266 109 -475 341 -648
243 -181 386 -428 420 -724 6 -46 10 -267 10 -493 0 -377 2 -413 19 -451 24
-53 91 -109 146 -123 70 -18 402 -14 457 5 54 18 107 66 134 120 18 37 19 71
22 663 l3 624 -29 31 c-17 17 -40 51 -53 76 -22 42 -24 59 -27 232 -4 217 5
268 64 336 l36 42 -4 228 c-4 217 -5 231 -32 307 -43 127 -101 219 -196 315
-113 113 -219 174 -375 215 -85 22 -260 19 -355 -5z"/>
<path d="M2031 3099 c-44 -18 -82 -51 -104 -92 -20 -39 -22 -55 -22 -222 0
-168 2 -183 23 -222 12 -24 41 -55 64 -70 l42 -28 1440 -3 c1019 -2 1452 0
1479 8 47 14 106 65 123 107 17 40 20 367 3 410 -15 40 -57 82 -104 104 -38
18 -99 19 -1480 18 -878 0 -1449 -4 -1464 -10z"/>
<path d="M2010 1824 l0 -544 1490 0 1490 0 0 546 c0 517 -1 546 -17 538 -24
-12 -2852 -17 -2914 -6 l-49 9 0 -543z"/>
</g>
</svg>
